<?xml version="1.0" standalone="no"?>
<!DOCTYPE svg PUBLIC "-//W3C//DTD SVG 20010904//EN"
 "http://www.w3.org/TR/2001/REC-SVG-20010904/DTD/svg10.dtd">
<svg version="1.0" xmlns="http://www.w3.org/2000/svg"
 width="222.000000pt" height="47.000000pt" viewBox="0 0 222.000000 47.000000"
 preserveAspectRatio="xMidYMid meet">

<g transform="translate(0.000000,47.000000) scale(0.100000,-0.100000)"
fill="#000000" stroke="none">
<path d="M0 235 l0 -235 1110 0 1110 0 0 235 0 235 -1110 0 -1110 0 0 -235z
m240 190 c37 -19 60 -52 61 -90 1 -17 3 -22 6 -12 2 9 10 17 18 17 11 0 11 6
2 30 -9 25 -9 33 6 47 27 27 71 7 75 -35 2 -23 -2 -34 -13 -38 -11 -5 -13 -9
-6 -14 8 -5 7 -27 -4 -80 -17 -82 -19 -85 -35 -75 -11 7 -8 48 6 98 4 13 -1
17 -23 17 -26 0 -29 -5 -41 -52 -25 -105 -59 -131 -161 -122 -39 4 -71 11 -71
15 0 5 11 9 24 9 14 0 28 4 31 10 4 6 13 5 25 -2 43 -27 104 29 125 115 7 25
5 27 -24 27 -21 0 -31 -5 -31 -15 0 -25 -38 -92 -55 -99 -38 -14 -41 -3 -18
92 4 18 1 22 -21 22 -14 0 -26 -4 -26 -10 0 -19 -39 -10 -54 12 -48 68 21 148
127 148 26 0 61 -7 77 -15z m1158 7 c9 -7 10 -15 3 -35 -9 -23 -16 -27 -50
-27 -30 0 -40 -4 -44 -19 -3 -13 1 -21 14 -24 11 -3 19 -1 19 4 0 15 68 10 84
-7 15 -14 16 -14 16 0 0 22 63 22 84 0 13 -13 16 -13 16 -1 0 10 16 16 58 19
61 6 105 -9 116 -38 8 -21 -13 -134 -26 -134 -16 0 -20 28 -10 75 10 46 10 46
-16 43 -32 -4 -48 -32 -62 -109 l-11 -56 -66 -6 c-41 -4 -71 -3 -79 4 -9 7
-19 7 -33 0 -28 -15 -57 -14 -75 5 -23 22 -20 36 4 22 17 -11 25 -10 49 3 27
16 30 16 45 1 13 -14 21 -14 46 -5 17 6 30 7 30 2 0 -5 11 -9 24 -9 22 0 26 6
36 58 6 31 13 64 16 73 4 13 -4 18 -29 21 l-34 4 -13 -63 c-12 -61 -25 -78
-36 -48 -3 8 -2 34 4 59 l9 44 -32 4 c-32 4 -32 3 -43 -55 -13 -66 -16 -72
-32 -62 -11 7 -8 48 6 98 4 13 -1 17 -20 17 -14 0 -26 -4 -26 -10 0 -5 -11
-10 -24 -10 -22 0 -26 -7 -41 -75 l-17 -75 -39 0 c-21 0 -39 5 -39 10 0 6 11
10 24 10 22 0 26 6 36 58 6 31 14 65 16 75 4 13 -1 17 -20 17 -14 0 -26 -4
-26 -10 0 -18 -39 -10 -54 11 -14 21 -15 20 -24 -17 -6 -22 -13 -54 -17 -72
-4 -19 -12 -31 -18 -29 -13 4 -15 35 -4 85 6 31 5 32 -24 32 -27 0 -30 3 -24
23 4 12 8 29 10 37 17 79 12 73 63 67 31 -4 56 -1 72 8 28 16 186 20 208 7z
m-697 -12 c24 -13 26 -68 3 -77 -10 -4 -12 -8 -5 -13 8 -5 7 -27 -4 -80 -17
-82 -19 -85 -35 -75 -11 7 -8 48 6 98 4 13 -1 17 -25 17 -28 0 -30 -3 -42 -56
-7 -31 -20 -63 -28 -71 -20 -21 -25 -4 -12 44 18 63 15 83 -14 83 -21 0 -26
-7 -36 -42 -12 -51 -34 -83 -48 -73 -14 8 -14 55 -1 89 9 24 7 26 -15 26 -29
0 -32 11 -7 32 26 24 52 28 116 19 83 -11 96 -7 83 29 -18 47 17 74 64 50z
m1230 0 c24 -13 26 -68 3 -77 -10 -4 -12 -8 -5 -13 8 -5 7 -27 -4 -80 -17 -82
-19 -85 -35 -75 -11 7 -8 48 6 98 4 14 -1 17 -26 17 -25 0 -31 3 -26 16 3 9 6
20 6 25 0 5 6 9 14 9 12 0 12 6 3 29 -18 48 17 76 64 51z m-1112 -19 c8 -5 12
-20 9 -38 -5 -38 13 -57 34 -36 16 15 42 19 113 15 63 -4 65 -7 48 -94 -11
-55 -20 -78 -30 -78 -12 0 -14 11 -8 60 7 60 7 60 -19 60 -22 0 -27 -6 -37
-42 -12 -51 -34 -83 -48 -73 -14 8 -14 55 -2 88 9 23 7 25 -22 30 -18 2 -35 3
-38 1 -4 -2 -12 -31 -18 -64 -8 -39 -17 -60 -24 -57 -13 4 -15 35 -4 85 6 30
5 32 -22 32 -24 0 -28 4 -28 25 0 14 3 28 8 31 5 3 9 16 9 29 0 17 7 25 23 28
37 7 41 7 56 -2z m1280 -66 c16 -8 31 -22 35 -31 8 -21 -13 -134 -26 -134 -16
0 -20 28 -10 75 9 43 9 45 -13 45 -32 0 -46 -21 -61 -97 -8 -37 -16 -68 -17
-69 -1 0 -34 -4 -74 -8 -58 -5 -75 -3 -87 10 -23 22 -20 36 4 22 17 -11 26
-10 50 4 25 14 30 15 30 3 0 -9 10 -15 24 -15 22 0 26 6 36 58 6 31 14 65 16
75 4 14 -1 17 -26 17 -25 0 -31 3 -26 16 3 9 6 20 6 24 0 5 21 11 48 13 26 2
51 4 55 5 4 1 21 -5 36 -13z m-919 -135 c0 -6 -7 -24 -15 -39 -19 -37 -68 -58
-104 -44 -18 6 -34 6 -50 -1 -15 -7 -31 -7 -50 0 -18 7 -34 7 -50 0 -16 -7
-32 -6 -54 2 -24 9 -39 9 -64 0 -24 -9 -38 -9 -58 0 -19 9 -31 9 -51 0 -18 -9
-33 -9 -53 -1 -35 13 -57 2 -66 -34 -3 -16 -14 -36 -22 -45 -27 -31 -113 -19
-113 14 0 5 9 3 20 -4 29 -18 72 8 86 51 6 19 22 42 36 52 23 17 27 17 38 4
17 -20 42 -19 72 4 24 19 24 19 36 0 15 -24 43 -24 74 0 24 20 25 20 41 0 20
-23 45 -24 74 -4 18 13 22 13 33 0 16 -19 41 -19 66 -1 16 13 21 12 36 -1 24
-21 63 -10 90 27 21 29 48 40 48 20z m569 -9 c-16 -24 -4 -53 18 -49 12 2 18
13 18 31 -1 30 7 34 25 13 31 -38 -10 -90 -53 -67 -18 10 -30 10 -45 2 -29
-15 -52 -14 -74 6 -21 19 -25 41 -3 23 22 -18 61 -4 85 30 23 32 48 42 29 11z
m431 4 c0 -63 -78 -108 -122 -68 -21 19 -25 41 -3 23 22 -18 61 -4 85 30 23
32 40 39 40 15z m-1734 -55 c8 0 24 5 35 10 12 7 19 7 19 1 0 -17 -36 -31 -77
-30 -21 0 -52 -2 -69 -6 -31 -7 -64 12 -64 38 0 8 4 7 12 -1 17 -17 42 -15 69
7 24 19 24 19 42 0 10 -10 25 -19 33 -19z m44 -26 c0 -13 -21 -44 -30 -44 -14
0 -12 24 2 38 13 13 28 16 28 6z"/>
</g>
</svg>
